<?xml version="1.0" encoding="UTF-8" standalone="no"?>
<svg
   version="1.1"
   id="Layer_1"
   x="0px"
   y="0px"
   width="100%"
   viewBox="0 0 368 640"
   enable-background="new 0 0 368 640"
   xml:space="preserve"
   sodipodi:docname="jujitsu_kanji_vertical.svg"
   inkscape:version="1.2.2 (732a01da63, 2022-12-09)"
   xmlns:inkscape="http://www.inkscape.org/namespaces/inkscape"
   xmlns:sodipodi="http://sodipodi.sourceforge.net/DTD/sodipodi-0.dtd"
   xmlns="http://www.w3.org/2000/svg"
   xmlns:svg="http://www.w3.org/2000/svg"><defs
   id="defs11" /><sodipodi:namedview
   id="namedview9"
   pagecolor="#ffffff"
   bordercolor="#666666"
   borderopacity="1.0"
   inkscape:showpageshadow="2"
   inkscape:pageopacity="0.0"
   inkscape:pagecheckerboard="0"
   inkscape:deskcolor="#d1d1d1"
   showgrid="false"
   inkscape:zoom="1.3765625"
   inkscape:cx="118.77412"
   inkscape:cy="319.63678"
   inkscape:window-width="2400"
   inkscape:window-height="1284"
   inkscape:window-x="-9"
   inkscape:window-y="-9"
   inkscape:window-maximized="1"
   inkscape:current-layer="Layer_1" />
<path
   fill="#000000"
   opacity="1"
   stroke="none"
   d="m 204.60126,157.21113 c -2.0136,1.29702 -3.24431,3.24728 -2.6015,5.50137 1.62475,5.69751 -0.19365,11.56909 1.13191,17.21594 0.82588,3.51818 0.86604,6.7227 -0.69037,10.17024 -1.53165,3.39271 0.31871,5.30019 4.33224,4.75689 11.56102,-1.56498 23.06435,-3.69913 34.66803,-4.75986 8.92304,-0.81572 17.96399,-0.33141 26.952,-0.45923 1.32217,-0.0188 2.85251,0.16861 3.92993,-0.40694 11.61026,-6.20233 18.76361,1.18341 25.94177,8.41114 1.51282,1.52321 2.71604,3.35362 4.06379,5.041 3.2452,4.06297 3.43582,8.79803 -0.0577,13.26114 -2.85559,3.64819 -6.99356,4.75848 -11.24393,2.8983 -13.26935,-5.80736 -27.3699,-7.28051 -41.53934,-8.85775 -5.49468,-0.61163 -10.89257,-2.31222 -16.4978,-2.42218 -1.12033,-0.022 -2.37779,-0.19867 -3.23671,1.02468 -0.20712,2.41009 1.81082,3.33828 3.28899,4.53711 6.31665,5.12291 12.77221,9.95953 19.90649,14.03405 10.06119,5.74613 18.99961,13.33933 29.41464,18.60355 2.29471,1.15987 4.16721,2.22299 6.90332,0.76703 3.81351,-2.02922 7.19678,0.23666 10.09601,2.40755 3.58454,2.68399 6.97593,5.69275 10.1124,8.8928 4.77713,4.874 5.89773,13.36655 2.73331,18.0571 -2.06885,3.06659 -13.57154,6.40314 -17.64032,4.14227 -11.02396,-6.12551 -23.14182,-5.51635 -34.9972,-6.57281 -3.87683,-0.34546 -7.51074,1.29407 -11.09204,2.63214 -7.03369,2.62799 -14.24394,4.63794 -21.55784,6.28153 -1.14469,0.25723 -2.50165,1.32321 -3.80934,-0.54889 3.00846,-2.94812 6.77835,-4.43076 10.68342,-5.64493 7.78871,-2.42175 15.59581,-4.78452 23.38167,-7.21536 4.02029,-1.25516 4.57071,-2.83631 1.31674,-5.8834 -6.85461,-6.41873 -14.40149,-11.88409 -22.46351,-16.8468 -10.2034,-6.28085 -20.98107,-11.51343 -31.08713,-17.92474 -1.15836,-0.73487 -2.4056,-1.36492 -3.70371,-0.42453 -1.17627,0.85209 -0.52874,2.09813 -0.51265,3.22934 0.097,6.81956 -0.41362,13.67143 -0.33326,20.4304 0.0905,7.6075 -1.27047,15.78551 3.08689,22.87612 3.80846,6.19745 1.14213,11.57827 -2.10699,16.62381 -1.61447,2.50708 -3.33852,4.8833 -4.56677,7.63781 -1.43778,3.22446 -3.43042,6.01172 -6.68444,7.83106 -7.00541,3.91665 -12.95581,2.8211 -18.07275,-3.48123 -1.00793,-1.24149 -1.29594,-2.41944 -1.17618,-4.08393 0.23806,-3.3081 -1.16328,-5.88839 -4.80519,-6.38192 -6.30058,-0.85373 -10.76506,-3.98435 -12.94282,-10.06424 -0.48076,-1.3422 -1.33423,-2.29261 -2.52686,-2.96564 -5.49794,-3.10272 -10.69098,-6.47904 -15.50273,-10.73953 -5.43906,-4.81592 -15.48212,-2.72098 -19.97401,3.08084 -2.76046,3.56543 -7.21261,3.90753 -10.92631,5.64605 -5.753879,2.69364 -11.724619,4.46317 -18.135179,5.02103 -3.44912,0.30017 -5.73414,-0.5813 -7.646357,-3.34863 -2.229255,-3.22611 0.903618,-4.33856 2.206604,-6.19028 7.127743,-10.12952 17.837503,-16.35141 26.812982,-24.46336 1.51644,-1.37056 3.46774,-2.64173 5.825,-2.38155 1.26888,1.38071 -0.0982,2.50058 -0.244,3.72055 -0.16614,1.39022 -1.29332,3.01 0.48276,4.07631 1.50436,0.90317 2.9508,0.0852 4.18349,-0.74925 3.01135,-2.03853 6.40434,-3.87514 5.35598,-9.15515 3.911,2.35048 6.67673,1.19307 9.48969,-0.97469 8.31166,-6.40524 16.77251,-12.61654 25.12977,-18.96322 2.21184,-1.67975 4.19446,-3.63063 5.71358,-6.0958 -2.11477,-1.16861 -3.79614,0.0225 -5.04548,0.62528 -8.97785,4.33165 -19.01394,5.65762 -27.93798,10.02262 -2.23292,1.0922 -4.51993,0.52465 -6.75154,0.87432 -11.75381,1.84164 -21.94647,7.65414 -32.608049,12.24559 -5.75511,2.47845 -11.681105,3.95175 -17.891112,4.12221 -4.920074,0.13507 -6.278755,-2.10781 -4.227707,-6.60712 3.006714,-6.59573 7.619339,-10.91582 14.818499,-13.47917 9.69225,-3.45105 18.974509,-8.10727 28.777569,-11.37277 8.04268,-2.67913 16.38204,-3.83498 24.74272,-5.16883 7.13436,-1.13817 14.02729,-3.8277 21.41796,-3.8298 3.25046,-9.2e-4 6.77528,2.57693 9.71487,-1.28412 -0.0395,-1.45255 -1.57947,-1.77547 -2.72316,-2.07928 -7.84094,-2.08295 -14.67567,-5.99859 -21.3275,-10.57638 -5.82307,-4.00743 -6.33073,-3.32952 -11.77093,1.79955 -3.73465,3.52106 -9.04466,4.48256 -13.88321,4.86641 -3.18205,0.25244 -5.77693,1.45625 -7.4522,3.20216 -3.25687,3.3942 -7.90859,4.43541 -11.15672,7.71695 -1.279769,1.29294 -3.339479,2.10909 -5.480259,1.84102 -1.01931,-2.3631 2.07914,-2.34488 2.08667,-4.00191 -6.24142,-0.89526 -9.67949,2.70543 -8.27629,8.83036 -3.37612,2.14122 -6.632,4.18162 -11.09351,2.84092 -2.103951,-0.63224 -4.06839,1.2302 -5.800759,2.48549 -5.624847,4.07582 -11.173271,8.25713 -17.793716,13.1718 0.817017,-3.67502 2.807541,-4.91334 4.43808,-6.26826 23.962125,-19.91227 48.050314,-39.67395 71.910284,-59.70755 11.33134,-9.51419 22.24366,-19.52744 33.34561,-29.31484 0.86958,-0.76661 1.94702,-1.4281 1.0688,-2.87857 -0.7656,-1.26442 -1.89188,-1.2849 -3.05531,-0.89294 -2.04345,0.68843 -4.19185,1.23675 -6.04448,2.28769 -5.46964,3.1027 -11.02106,5.75569 -17.53746,5.3919 -0.31408,-0.0175 -0.6576,0.12693 -0.95691,0.263 -13.88593,6.3135 -27.82321,12.53757 -40.073769,21.84618 -3.20623,2.43628 -4.54527,6.32033 -8.29407,8.76141 -5.91049,3.8487 -11.04535,3.57692 -16.932573,0.89626 -0.225357,-2.71695 1.596756,-4.61998 3.013245,-6.55138 5.097328,-6.95021 11.512088,-12.43103 19.076988,-16.59352 12.398529,-6.82213 24.832989,-13.57698 38.033219,-18.75343 3.80678,-1.49283 7.83495,-2.41101 11.69206,-3.78752 11.35874,-4.05371 19.83301,-11.36019 24.92473,-22.41821 2.73154,-5.93228 -0.12881,-9.782404 -6.75915,-9.527598 -7.78043,0.299012 -15.63915,0.750298 -23.05768,-2.47995 -1.52184,-0.662643 -3.07944,-1.32769 -4.44297,-2.253257 -3.90155,-2.648354 -4.08689,-5.247101 -0.73831,-8.523819 0.59386,-0.581116 1.20546,-1.17994 1.90744,-1.609459 15.05071,-9.209152 28.52506,-20.840183 44.37616,-28.824501 6.86724,-3.459076 14.05762,-6.035897 21.31325,-8.535656 15.79393,-5.441429 28.91197,-0.731255 40.73772,9.963512 5.27188,4.767712 11.11349,8.755516 13.93377,15.896462 1.94239,4.918106 3.60602,9.615371 0.6323,14.246376 -2.81003,4.376083 -7.42325,4.394356 -12.41086,4.332847 -6.3842,-0.07873 -13.12486,-0.472229 -19.1037,2.612358 -5.94707,3.068192 -12.00986,4.727471 -18.60315,2.99572 -1.08285,2.206429 0.70923,2.904801 1.5383,3.948651 2.38722,3.005624 4.67182,5.972904 5.40732,9.949224 0.55804,3.01692 2.47092,4.33316 5.84463,3.75263 10.8555,-1.86796 21.80283,-3.17366 32.50483,-5.94933 2.51004,-0.65102 5.37555,-0.63944 7.94928,-0.19313 5.77575,1.00159 11.10409,0.36117 16.52218,-2.01123 4.46241,-1.95393 12.06491,0.79166 15.37146,4.46874 5.2012,5.78409 11.48422,10.6511 14.15638,18.44963 2.70355,7.89025 1.80486,10.70886 -5.39615,14.73751 -2.75162,1.5394 -5.70475,2.73027 -8.07096,4.94759 -0.66043,0.61884 -1.85968,1.13417 -2.7088,1.00745 -8.83429,-1.31842 -17.20941,0.83743 -25.82129,2.37675 -6.20874,1.10977 -12.36258,1.33427 -17.87002,4.91888 -1.2305,0.80089 -3.31141,1.77459 -4.70725,-0.73333 -0.98343,-1.76691 -2.39511,-0.0931 -3.4729,0.31006 -6.89372,2.57856 -13.25279,6.22567 -19.5665,9.96405 -2.08329,1.23353 -4.15235,2.68155 -7.5309,2.54286 2.50901,-7.07405 10.20298,-7.19708 13.93218,-12.14855 -1.4821,-2.65014 -3.35094,-2.66432 -5.91867,-0.99417 -2.78465,1.81122 -5.8243,3.22795 -8.73436,4.8497 -2.00907,1.11965 -3.77544,1.41834 -4.61308,-1.66856 3.79724,-2.83141 7.34371,-5.17206 11.53721,-7.93976 -5.53758,-2.11818 -8.91687,-1.77167 -10.19414,3.69229 -0.33155,1.41846 -1.0941,2.73619 -1.6587,4.10018 m -35.18248,79.8585 c -6.88004,4.95648 -13.79515,9.86534 -20.62151,14.89467 -2.47052,1.82015 -4.59382,4.51592 -1.29007,6.89766 6.69658,4.82773 12.82399,11.39679 22.73752,8.21381 2.95555,-0.94898 4.69388,-1.88053 4.05614,-4.86121 -1.48123,-6.92264 -0.77243,-13.90904 -1.06125,-20.86513 -0.0875,-2.10872 -0.35697,-4.34889 -3.82083,-4.2798 M 186.38362,82.838717 c 1.16161,0.23703 2.29198,0.302308 3.39687,-0.298538 7.97966,-4.339401 12.84575,-11.210846 16.39158,-19.567684 -4.23506,-2.44297 -8.19406,-4.873672 -12.86891,-3.358196 -6.63614,2.151287 -14.3379,13.25312 -14.65121,20.783325 2.2641,0.732071 4.61592,1.492508 7.73167,2.441093 m -27.7095,107.225743 c 11.99643,-2.14769 16.94446,-7.50862 12.49759,-18.6837 -9.33478,4.50204 -18.62917,8.98463 -28.7229,13.85272 5.03552,4.06416 9.92349,5.31368 16.22531,4.83098 m 71.38432,-65.79209 c -9.50873,1.76269 -19.53564,-1.33928 -29.29269,3.15777 2.85663,7.62985 10.82164,7.98457 16.03767,8.87547 8.36926,1.42947 13.77834,-6.90186 21.38541,-10.70487 -2.95973,-1.96136 -5.16837,-1.12534 -8.13039,-1.32837 m -59.50627,-0.54977 c 2.42711,-1.25378 4.85422,-2.50756 7.28133,-3.76134 -5.65825,1.33255 -12.62526,-0.76043 -16.9043,6.08025 3.79578,0.32221 6.17567,-1.54346 9.62297,-2.31891 m 70.81195,116.56542 c 0.97775,-3.21155 -2.17145,-2.0486 -3.7399,-4.24482 0.73984,2.57499 -0.01,3.5596 -1.03587,4.44051 1.53035,1.20532 2.93226,1.6646 4.77577,-0.19569 z"
   id="path2" />
<path
   id="path4"
   d="m 188.08982,340.95193 c -3.031,1.71612 -5.73863,3.00559 -8.32031,4.39453 -7.29064,3.92245 -14.90354,7.56336 -19.71289,14.86719 -2.07009,3.14376 -2.23595,6.06314 -1.12891,9.84375 2.03456,6.94811 5.17137,13.78614 4.86328,21.21875 -0.35664,8.60348 -1.31296,17.17866 -1.78906,25.7793 -0.4693,8.47811 -3.36951,15.85202 -9.06055,22.16796 -5.4591,6.05853 -10.88654,12.14643 -16.23242,18.30469 -3.39915,3.91568 -2.50424,6.7688 2.35547,8.61133 1.48314,0.56229 3.3962,0.36985 4.72851,2.77344 -9.90326,20.19566 -19.89371,40.79189 -32.2832,60.83594 -2.87973,-2.66181 -4.92307,-4.55182 -7.14062,-6.60157 3.02955,-9.99355 10.38342,-17.75288 13.80273,-27.50195 1.27745,-3.64224 7.29004,-5.96805 2.64063,-11.04688 -0.1184,-0.12936 0.0839,-0.65411 0.25,-0.92578 2.64336,-4.32314 3.12112,-9.4548 5.14062,-13.96875 3.08591,-6.89757 7.51261,-13.07321 10.56641,-20.09179 2.20205,-5.06103 1.83787,-8.92362 -0.74024,-13.05078 -2.8852,-4.6188 -5.78797,-9.2147 -10.68359,-12.20899 -3.50123,-2.14145 -6.64159,-4.87256 -10.01367,-7.39258 1.72584,-2.54467 4.20061,-3.99826 6.37695,-5.74414 1.41075,-1.13168 3.10305,-1.91299 4.67383,-2.84375 1.13751,-0.6741 2.59735,-1.08154 3.375,-2.04297 5.07229,-6.27117 4.42457,-17.40189 -1.32031,-23.44921 -4.61418,-4.85706 -10.02343,-8.73057 -15.51368,-12.54493 -5.21905,-3.62597 -9.98361,-4.03426 -14.925774,0.38282 -1.18405,1.05822 -2.88621,1.61645 -4.43359,2.17382 -6.4151,2.31091 -11.47062,6.40083 -16.35938,11.10743 -9.06414,8.72643 -13.89013,20.2273 -20.85742,30.31054 -2.66789,3.86105 -0.44614,7.43039 2.60156,9.48047 3.78198,2.54394 6.17006,5.84791 8.34375,9.62305 2.72331,4.72973 6.69348,7.81137 12.37305,8.14258 3.76908,0.21975 7.2497,-0.77305 10.39844,-2.81446 2.45432,-1.59121 4.50022,-0.2814 6.5,0.85352 2.10459,1.19439 1.37513,3.05969 0.88672,4.87305 -1.9473,7.22979 -3.45658,14.60163 -5.8125,21.69335 -10.02831,30.18732 -21.82162,59.7161 -33.69141,89.21485 -1.9205,4.77288 -3.19846,9.80494 -4.77344,14.7168 0.38962,0.18225 0.78031,0.36468 1.16993,0.54687 3.24874,-3.21063 6.07161,-6.7605 8.2539,-10.87109 1.43552,-2.70386 3.13217,-5.11749 6.86914,-3.66211 -1.73056,4.13348 -5.69706,7.33765 -4.94726,13.25976 5.10817,-5.69396 11.81367,-9.1681 12.23047,-17.32617 0.0837,-1.63733 1.16508,-3.95709 2.55664,-3.99023 4.71951,-0.11237 5.85403,-4.39142 8.88086,-6.84766 2.83382,-0.58899 5.63881,-0.49298 6.875,-3.75195 0.51022,-1.34516 1.49907,-2.84082 3.40234,-2.11133 1.547634,0.59314 2.177724,2.0636 2.353514,3.58984 0.42202,3.66418 -1.026135,6.86347 -2.830074,9.89649 -4.03772,6.78887 -3.80594,8.15705 2.466784,13.21679 2.34955,1.89527 4.8365,3.53357 7.73633,4.49219 7.06547,2.33569 10.14592,0.42724 11.25391,-7.0332 0.0975,-0.65668 0.0568,-1.3324 0.12891,-1.99414 0.68336,-6.27429 1.33922,-12.49403 3.48632,-18.56445 1.76103,-4.97894 2.33031,-10.2378 0.67383,-15.64649 -0.99954,-3.26373 -0.75143,-6.83289 3.48438,-9.91797 -3.07057,17.14009 7.23144,21.78669 20.82812,23.41602 4.42761,-3.87823 4.26662,-3.90162 5.10938,-10.07617 0.49272,-3.60992 0.53233,-7.25266 0.93554,-10.86524 1.1057,-9.90642 5.80799,-20.05146 -1.57226,-29.77734 -2.13286,-2.8107 -3.43888,-5.69269 -7.55078,-4.97266 1.34583,-3.98788 2.37028,-7.69174 3.84375,-11.20703 1.4342,-3.4216 4.67871,-4.19345 7.9414,-3.80859 3.24838,0.38314 2.1732,3.29724 2.19336,5.24023 0.12387,11.9431 -1.04693,24.03416 0.45313,35.79102 1.68258,13.18724 1.27076,26.24354 0.67773,39.31445 -0.38777,8.54729 2.63222,17.04591 0.0508,25.55859 -0.16411,0.5412 0.24953,1.27869 0.45313,1.90625 1.87266,5.77197 7.3569,7.31531 11.86328,9.91602 1.40385,0.81018 2.25638,-0.55365 2.93359,-1.87891 2.44338,-4.78185 1.73238,-9.6543 -0.66015,-13.87109 -2.34276,-4.12909 -3.08928,-8.27418 -3.31055,-12.83008 -0.37673,-7.75683 1.74977,-15.20069 2.5,-22.81055 0.0906,-0.91851 0.58433,-2.13629 1.29297,-2.59765 3.72138,-2.42297 5.6962,-6.51233 9.04883,-9.22852 2.02711,-1.64239 3.84885,-3.75561 6.92773,-4.49219 -1.53282,4.08551 -5.52092,6.12336 -6.41797,10.61329 9.90974,-3.30866 15.11602,-13.71479 25.91016,-14.81836 10.903,-20.17534 10.31836,-24.07256 -6.00977,-38.48438 -8.63607,-7.62255 -9.3959,-7.59374 -17.98633,0.17188 -2.16651,1.95855 -4.01388,3.87836 -3.66015,7.18359 1.14857,10.73195 -1.73617,20.69453 -6.13867,30.31445 -0.49219,1.07547 -0.83756,2.64157 -2.65625,2.36524 -1.03763,-1.4065 -0.67569,-2.96796 -0.5293,-4.38867 1.07233,-10.40701 2.34587,-20.75581 4.26172,-31.08594 1.77537,-9.57272 5.37937,-16.80625 14.375,-21.02735 2.09021,-0.9808 3.2485,-3.13089 4.57226,-5.11328 2.92844,-4.38546 5.96796,-8.83725 9.70118,-12.50976 4.3612,-4.29025 4.91628,-4.94572 1.14257,-10.17578 -2.19168,-3.03748 -4.74344,-5.81641 -7.06836,-8.63282 5.23991,-6.33779 6.23695,-6.56857 12.89454,-3.7539 2.43977,1.03149 4.92734,2.01645 7.48242,2.68554 3.33108,0.87229 6.24619,-1.08258 8.68164,-2.6875 1.93045,-1.27215 0.31068,-4.12899 -0.42383,-6.03125 -2.94485,-7.62651 -8.92268,-12.77579 -15.375,-17.23828 -2.95958,-2.04687 -6.45551,-2.28057 -9.52539,0.92383 -1.34836,1.40744 -2.974,3.08084 -5.89063,3.29883 1.99619,-5.10131 3.18426,-10.20807 5.85547,-14.36133 2.54762,-3.96108 2.9803,-7.57901 1.68946,-11.69336 -3.63179,-11.57573 -12.04412,-20.28123 -17.97266,-30.70703 z m 71.67383,8.00781 c -0.92452,0.007 -1.83578,0.052 -2.72461,0.12891 -11.25606,0.97415 -21.5051,6.53056 -29.26367,15.5332 -1.63652,1.89893 -1.1426,3.47721 -0.27344,5.45508 3.4616,7.87728 9.40427,13.85523 16.02734,18.74805 3.73022,2.75561 3.42181,4.39859 1.37891,7.375 -9.35787,13.63399 -16.11012,28.72288 -24.08789,43.1289 -3.8358,6.92654 -6.47725,14.27235 -7.63867,22.06055 -0.4292,2.87796 -0.89925,5.50891 -2.69727,7.85742 -2.1538,2.8132 -1.47932,5.29844 0.50195,8.14649 3.51506,5.05288 8.91545,7.99109 12.94922,12.40039 3.29062,3.59704 7.01693,4.82476 11.66211,2.88281 4.26401,-1.78262 7.92286,-0.006 10.00977,3.36523 4.90762,7.92801 7.69088,16.58528 5.83789,26.10547 -0.46292,2.37836 -0.67764,4.68543 0.5,6.81446 4.93658,8.92473 5.28095,19.27857 8.99219,29.0039 0.92459,9.63775 -4.07865,16.93415 -9.02735,23.51758 -4.42895,5.89202 -11.30655,7.69165 -16.02148,2.69531 -9.55116,-10.12108 -21.1247,-18.37635 -28.57813,-30.5 -1.6484,-2.68121 -3.28487,-5.82233 -7.46484,-7.38672 0.68164,1.72919 1.00061,2.64838 1.39844,3.53321 5.0881,11.31639 13.87555,19.83649 21.86523,28.96875 9.20637,10.523 17.93986,21.53601 31.1582,27.54687 4.37512,1.9895 7.60819,1.57379 9.59961,-2.64843 2.89899,-6.14648 7.43153,-11.19068 10.49414,-17.30665 3.92224,-7.83257 4.80908,-15.04633 2.4004,-23.38671 -2.30213,-7.97125 -4.94614,-15.84858 -7.04297,-23.86329 -2.61463,-9.99394 -3.12943,-20.35016 -2.9336,-30.61523 0.19992,-10.47912 1.04313,-20.99421 7.0586,-30.23242 2.45025,-3.76291 4.54523,-7.75782 7,-11.51758 6.06792,-9.2936 15.245,-13.63037 25.81445,-14.76172 7.8753,-0.84295 9.75808,-3.38898 6.01758,-10.52734 -6.37677,-12.16942 -16.53102,-20.29801 -28.66211,-26.12891 -5.3385,-2.56607 -10.02573,-1.62533 -15.12891,2.02344 -9.9822,7.13735 -17.71421,16.64667 -27.19531,24.24219 -3.15912,2.53079 -6.12398,5.47421 -10.35742,6.4707 -1.83638,-4.07553 -2.46162,-7.8397 -0.5293,-11.76563 0.58075,-1.17999 1.07526,-2.58154 -0.0508,-3.74218 -1.85672,-1.91388 -0.32149,-3.35013 0.59375,-4.84766 5.09378,-8.33468 13.24024,-14.19508 18.26953,-22.61914 1.77731,-2.97702 5.01984,-4.24677 8.28711,-5.18359 1.15503,-0.33121 2.23001,-0.55094 3.2832,0.3457 6.32907,5.38842 13.73783,5.56723 21.19141,3.6875 10.90126,-2.7492 18.66149,-12.83836 13.84766,-24.32617 -3.92777,-9.37313 -11.06617,-16.06669 -17.68555,-23.29492 -5.15039,-5.62413 -12.30376,-7.43114 -18.77539,-7.38282 z m -65.04883,57.96485 c 0.15319,0.0121 0.30019,0.12349 0.42969,0.35742 1.96302,3.54626 5.91869,3.21643 9.08593,5.15234 -1.19605,2.81277 -3.94525,4.99353 -6.25,4.36524 -3.22686,-0.87976 -4.54267,-4.38315 -4.48046,-7.94141 0.24142,-1.1149 0.75528,-1.96983 1.21484,-1.93359 z" />

</svg>
