<?xml version="1.0" encoding="UTF-8" standalone="no"?>
<svg
   version="1.1"
   style="display: block;"
   viewBox="0 0 2048 2048"
   width="1024"
   height="1024"
   preserveAspectRatio="none"
   id="svg6"
   sodipodi:docname="main_icon_white_dark.svg"
   inkscape:version="1.2.2 (732a01da63, 2022-12-09)"
   xml:space="preserve"
   inkscape:export-filename="main_icon_white_dark.png"
   inkscape:export-xdpi="96"
   inkscape:export-ydpi="96"
   xmlns:inkscape="http://www.inkscape.org/namespaces/inkscape"
   xmlns:sodipodi="http://sodipodi.sourceforge.net/DTD/sodipodi-0.dtd"
   xmlns="http://www.w3.org/2000/svg"
   xmlns:svg="http://www.w3.org/2000/svg"><defs
     id="defs10" /><sodipodi:namedview
     id="namedview8"
     pagecolor="#ffffff"
     bordercolor="#666666"
     borderopacity="1.0"
     inkscape:showpageshadow="2"
     inkscape:pageopacity="0.0"
     inkscape:pagecheckerboard="0"
     inkscape:deskcolor="#d1d1d1"
     showgrid="false"
     inkscape:zoom="1.7207031"
     inkscape:cx="458.53349"
     inkscape:cy="511.70943"
     inkscape:window-width="1920"
     inkscape:window-height="1013"
     inkscape:window-x="-9"
     inkscape:window-y="1341"
     inkscape:window-maximized="1"
     inkscape:current-layer="svg6" /><path
     fill="rgb(0,0,0)"
     d="M 507.438 0 L 1542.49 0 L 1543.37 0.173193 C 1553.4 2.02283 1568.36 2.52373 1579.07 3.72722 C 1599.1 6.00796 1618.98 9.44268 1638.61 14.0143 C 1766 43.4957 1878.04 118.94 1953.26 225.895 C 1996.66 288.306 2026.04 359.369 2039.39 434.205 C 2041.52 445.705 2043.17 457.288 2044.34 468.924 C 2045.17 477.846 2046.09 494.329 2048 502.335 L 2048 1557.91 C 2045.58 1568.88 2045.81 1581.76 2044.37 1593.06 C 2025.12 1744.59 1940.25 1877.77 1812.62 1962.74 C 1754.63 2001.18 1689.4 2027.37 1620.94 2039.72 C 1609.41 2041.74 1598.61 2043.29 1587.01 2044.69 C 1578.48 2045.72 1563.66 2046.16 1555.89 2048 L 493.171 2048 C 489.307 2046.9 468.655 2045.34 463.356 2044.8 C 449.996 2043.33 436.697 2041.36 423.487 2038.88 C 348.518 2024.78 277.617 1994.21 215.907 1949.36 C 114.742 1875.83 43.0858 1768.65 13.7917 1647.06 C 9.54822 1628.97 6.34406 1610.65 4.19494 1592.2 C 2.79277 1580.44 1.99349 1566.76 0.149538 1555.41 L 0 1554.52 L 0 509.424 C 1.56723 502.839 2.58378 487.277 3.29433 480.072 C 4.71534 465.682 6.62559 451.344 9.02176 437.084 C 21.7557 362.264 50.6164 291.11 93.6011 228.559 C 166.482 122.867 275.502 47.479 400.117 16.601 C 422.221 11.4664 444.575 7.4706 467.089 4.62953 C 478.241 3.27965 496.526 2.17151 506.634 0.167746 L 507.438 0 z"
     id="path2"
     transform="translate(0,0)" /><g
     id="g1913"
     transform="translate(3.4156701e-6,-72.269853)"><path
       id="path4"
       style="stroke-width:0.830371;fill:#ffffff;fill-opacity:1"
       d="M 891.9414 673.13704 L 892.01172 711.66048 C 892.13545 739.90553 893.00116 760.08659 871.65234 781.62142 C 848.95001 804.52219 820.48237 800.90255 791.35547 800.89095 L 713.51562 800.84017 C 614.22824 800.80367 512.74001 799.736 413.63281 800.90267 L 413.62109 1016.9417 L 673.95703 1016.9925 L 757.15625 1017.0159 C 768.87941 1017.0242 787.55113 1016.3941 798.75781 1017.1331 C 723.70063 1028.5258 651.12553 1052.6054 584.14453 1088.3363 C 560.04884 1100.9412 534.05042 1116.197 510.64062 1130.2386 C 449.26296 1167.0656 385.0289 1201.2597 324 1238.4105 C 333.27025 1254.6442 342.62792 1270.835 352.07422 1286.9691 C 357.33129 1296.0035 364.53321 1309.1888 370.32422 1317.5589 C 387.8633 1342.9268 413.72709 1361.3719 443.43359 1369.6839 C 477.6573 1379.5404 514.41018 1375.2135 545.40625 1357.6761 C 558.72123 1350.2359 576.18921 1334.8007 588.53515 1324.637 L 653.29687 1271.1605 L 877.88672 1085.6136 L 917.78906 1052.7972 C 927.96766 1044.4386 938.13908 1035.2807 949.32031 1028.2816 C 941.99733 1123.1713 916.92269 1212.9536 907.82812 1276.0589 C 895.52368 1361.4366 1016.5705 1497.7906 1047.7852 1514.5238 C 1103.5105 1544.3962 1136.7789 1429.4097 1136.1719 1377.43 C 1135.5891 1327.5255 1134.7202 1204.9366 1133.5352 1055.5159 L 1376.4648 1255.8324 L 1453.125 1319.4222 C 1494.7515 1353.758 1522.7831 1379.5383 1581.457 1374.0745 C 1616.4156 1370.8361 1648.6537 1353.797 1671.0156 1326.7269 C 1678.9789 1317.0365 1686.5023 1304.3085 1692.5391 1293.1566 C 1702.4121 1274.9051 1714.6749 1256.7197 1724 1238.3519 L 1571.5039 1150.0433 C 1514.1586 1116.7205 1456.8602 1080.8877 1395.0391 1056.5081 C 1348.7709 1038.2566 1299.3328 1023.7824 1249.9258 1017.2308 C 1262.672 1016.4336 1278.4743 1017.0689 1291.5859 1017.0589 L 1369.7617 1017.0003 L 1634.1289 1016.9261 L 1634.1602 800.85579 L 1340.6758 800.83626 L 1258.2266 800.89095 C 1227.9928 800.90506 1199.3955 804.79596 1176.0039 781.24251 C 1155.1035 760.18846 1155.76 739.10133 1155.793 711.68001 L 1155.8945 673.20345 L 891.9414 673.13704 z " /><path
       id="path4-32"
       style="display:block;stroke-width:0.830371;stroke:none"
       d="M 1401.3555 1059.3089 L 1302.1016 1194.5159 L 1376.4648 1255.8324 L 1453.125 1319.4222 C 1466.4915 1330.4476 1478.4604 1340.408 1490.4883 1348.9183 L 1617.0977 1176.4456 L 1571.5039 1150.0433 C 1516.1448 1117.8747 1460.7379 1083.5937 1401.3555 1059.3089 z " /><g
       id="g918"><path
         id="path4-36"
         style="display:block;fill:#fefefe;fill-opacity:1;stroke:none;stroke-width:0.830371"
         d="m 1458.3693,1086.006 -105.6647,150.2323 23.7596,19.5917 7.668,6.3607 110.2771,-156.7942 c -11.9081,-6.7077 -23.9262,-13.1127 -36.04,-19.3905 z" /><path
         id="path4-3"
         style="display:block;fill:#fefefe;fill-opacity:1;stroke:none;stroke-width:0.830371"
         d="m 1565.0136,1146.2858 -118.13,167.9588 6.2408,5.1768 c 8.9847,7.4111 14.5708,11.5408 22.7338,17.9268 l 124.3035,-170.4037 -1.2942,-1.0542 -27.3666,-15.8484 c -2.1491,-1.2488 -4.3381,-2.501 -6.4873,-3.7561 z"
         sodipodi:nodetypes="cccccccc" /><path
         id="path4-2"
         style="display:block;fill:#fefefe;fill-opacity:1;stroke:none;stroke-width:0.830371;stroke-opacity:0"
         d="m 1512.8398,1116.0713 -112.4505,159.6064 31.2557,25.9265 116.3687,-165.1629 c -11.6671,-6.8573 -23.4214,-13.5791 -35.1739,-20.37 z" /></g></g></svg>
