<svg xmlns="http://www.w3.org/2000/svg" viewBox="0 0 512 512">
  <defs>
    <linearGradient id="bg" x1="0" y1="0" x2="1" y2="1">
      <stop offset="0%" stop-color="#17181d" />
      <stop offset="100%" stop-color="#101116" />
    </linearGradient>
    <linearGradient id="belt" x1="0" y1="0" x2="1" y2="1">
      <stop offset="0%" stop-color="#19e0ad" />
      <stop offset="100%" stop-color="#10c696" />
    </linearGradient>
  </defs>

  <rect width="512" height="512" rx="96" fill="url(#bg)" />

  <path fill="url(#belt)" d="M72 196h132c11 0 20-9 20-20v-7c0-11 9-20 20-20h24c11 0 20 9 20 20v7c0 11 9 20 20 20h132v56H72z" />
  <path fill="url(#belt)" d="M66 274h190l-170 97a28 28 0 0 1-38-10l-16-27z" />
  <path fill="url(#belt)" d="M446 274H256l170 97a28 28 0 0 0 38-10l16-27z" />

  <rect x="214" y="242" width="84" height="24" rx="12" fill="#17d6a8" />
  <rect x="206" y="274" width="100" height="22" rx="11" fill="#13c79a" />

  <rect x="98" y="301" width="36" height="10" rx="5" transform="rotate(-30 98 301)" fill="#fff" opacity="0.9" />
  <rect x="116" y="311" width="36" height="10" rx="5" transform="rotate(-30 116 311)" fill="#fff" opacity="0.9" />
</svg>
