<?xml version="1.0" encoding="UTF-8" standalone="no"?>
<svg
   fill="none"
   viewBox="0 0 21.995506 21.431868"
   id="Github-Logo-2--Streamline-Logos"
   height="21.431868"
   width="21.995506"
   version="1.1"
   sodipodi:docname="github.svg"
   inkscape:version="1.2.2 (732a01da63, 2022-12-09)"
   inkscape:export-filename="github.png"
   inkscape:export-xdpi="645.95013"
   inkscape:export-ydpi="645.95013"
   xmlns:inkscape="http://www.inkscape.org/namespaces/inkscape"
   xmlns:sodipodi="http://sodipodi.sourceforge.net/DTD/sodipodi-0.dtd"
   xmlns="http://www.w3.org/2000/svg"
   xmlns:svg="http://www.w3.org/2000/svg">
  <defs
     id="defs9" />
  <sodipodi:namedview
     id="namedview7"
     pagecolor="#ffffff"
     bordercolor="#666666"
     borderopacity="1.0"
     inkscape:showpageshadow="2"
     inkscape:pageopacity="0.0"
     inkscape:pagecheckerboard="0"
     inkscape:deskcolor="#d1d1d1"
     showgrid="false"
     inkscape:zoom="25.956711"
     inkscape:cx="-7.3584053"
     inkscape:cy="13.079469"
     inkscape:window-width="1920"
     inkscape:window-height="1013"
     inkscape:window-x="-9"
     inkscape:window-y="1341"
     inkscape:window-maximized="1"
     inkscape:current-layer="Github-Logo-2--Streamline-Logos" />
  <desc
     id="desc2">
    Github Logo 2 Streamline Icon: https://streamlinehq.com
  </desc>
  <path
     fill="#000000"
     d="M 10.99525,9.2502899e-6 A 10.986,10.986 0 0 0 7.5232498,21.412009 c 0.548,0.095 0.722,-0.227 0.722,-0.517 0,-0.263 0.006,-0.991 0,-1.91 -3.057,0.662 -3.688,-1.448 -3.688,-1.448 a 2.907,2.907 0 0 0 -1.22,-1.607 c -0.997,-0.682 0.075,-0.669 0.075,-0.669 a 2.307,2.307 0 0 1 1.683,1.131 2.34,2.34 0 0 0 3.197,0.914 2.34,2.34 0 0 1 0.697,-1.464 c -2.439,-0.279 -5.004,-1.22 -5.004,-5.432 a 4.248,4.248 0 0 1 1.132,-2.9479997 3.942,3.942 0 0 1 0.107,-2.907 c 0,0 0.924,-0.295 3.02,1.128 a 10.402,10.402 0 0 1 5.5030002,0 c 2.102,-1.422 3.018,-1.128 3.018,-1.128 0.405,0.92 0.444,1.96 0.109,2.907 a 4.243,4.243 0 0 1 1.13,2.9499997 c 0,4.223 -2.569,5.15 -5.016,5.42 a 2.604,2.604 0 0 1 0.752,2.026 v 3.041 c 0,0.294 0.177,0.619 0.735,0.512 A 10.986,10.986 0 0 0 10.99525,9.2502899e-6 Z"
     stroke-width="1"
     id="path4" />
</svg>
