<?xml version="1.0" encoding="UTF-8" standalone="no"?>
<svg
   viewBox="0 0 147.77301 148.436"
   version="1.1"
   id="svg22"
   sodipodi:docname="whatsapp.svg"
   width="147.77301"
   height="148.436"
   inkscape:version="1.2.2 (732a01da63, 2022-12-09)"
   inkscape:export-filename="whatsapp.png"
   inkscape:export-xdpi="96"
   inkscape:export-ydpi="96"
   xmlns:inkscape="http://www.inkscape.org/namespaces/inkscape"
   xmlns:sodipodi="http://sodipodi.sourceforge.net/DTD/sodipodi-0.dtd"
   xmlns="http://www.w3.org/2000/svg"
   xmlns:svg="http://www.w3.org/2000/svg">
  <sodipodi:namedview
     id="namedview24"
     pagecolor="#ffffff"
     bordercolor="#666666"
     borderopacity="1.0"
     inkscape:showpageshadow="2"
     inkscape:pageopacity="0.0"
     inkscape:pagecheckerboard="0"
     inkscape:deskcolor="#d1d1d1"
     showgrid="false"
     inkscape:zoom="5.018456"
     inkscape:cx="28.893349"
     inkscape:cy="75.222339"
     inkscape:window-width="1920"
     inkscape:window-height="1013"
     inkscape:window-x="-9"
     inkscape:window-y="1341"
     inkscape:window-maximized="1"
     inkscape:current-layer="svg22" />
  <defs
     id="defs10">
    <linearGradient
       id="b"
       x1="85.915001"
       x2="86.535004"
       y1="32.567001"
       y2="137.092"
       gradientUnits="userSpaceOnUse"
       gradientTransform="translate(-12.966,-12.802)">
      <stop
         offset="0"
         stop-color="#57d163"
         id="stop2" />
      <stop
         offset="1"
         stop-color="#23b33a"
         id="stop4" />
    </linearGradient>
    <filter
       id="a"
       width="1.1146948"
       height="1.1141825"
       x="-0.057347413"
       y="-0.05709127"
       color-interpolation-filters="sRGB">
      <feGaussianBlur
         stdDeviation="3.531"
         id="feGaussianBlur7" />
    </filter>
  </defs>
  <path
     fill="#ffffff"
     d="M 0,148.436 10.439,110.322 A 73.42,73.42 0 0 1 0.618,73.55 C 0.635,32.994 33.639,0 74.196,0 c 19.681,0.01 38.154,7.669 52.047,21.572 13.893,13.903 21.537,32.383 21.53,52.037 -0.018,40.553 -33.027,73.553 -73.578,73.553 H 74.163 C 61.85,147.157 49.751,144.068 39.004,138.208 Z"
     id="path14" />
  <path
     fill="url(#linearGradient1780)"
     d="m 74.218,12.425 c -33.733,0 -61.166,27.423 -61.178,61.13 a 60.98,60.98 0 0 0 9.349,32.535 l 1.455,2.312 -6.179,22.559 23.146,-6.069 2.235,1.324 c 9.387,5.571 20.15,8.518 31.126,8.524 h 0.023 c 33.707,0 61.14,-27.426 61.153,-61.135 A 60.75,60.75 0 0 0 117.453,30.354 60.75,60.75 0 0 0 74.218,12.425 Z"
     id="path16" />
  <path
     fill="url(#b)"
     d="m 74.218,12.425 c -33.733,0 -61.166,27.423 -61.178,61.13 a 60.98,60.98 0 0 0 9.349,32.535 l 1.455,2.313 -6.179,22.558 23.146,-6.069 2.235,1.324 c 9.387,5.571 20.15,8.517 31.126,8.523 h 0.023 c 33.707,0 61.14,-27.426 61.153,-61.135 A 60.75,60.75 0 0 0 117.453,30.353 60.75,60.75 0 0 0 74.218,12.425 Z"
     id="path18"
     style="fill:url(#b)" />
  <path
     fill="#ffffff"
     fill-rule="evenodd"
     d="M 55.806,42.801 C 54.428,39.74 52.978,39.678 51.669,39.625 l -3.524,-0.043 c -1.226,0 -3.218,0.46 -4.902,2.3 -1.684,1.84 -6.435,6.287 -6.435,15.332 0,9.045 6.588,17.785 7.506,19.013 0.918,1.228 12.718,20.381 31.405,27.75 15.529,6.124 18.689,4.906 22.061,4.6 3.372,-0.306 10.877,-4.447 12.408,-8.74 1.531,-4.293 1.532,-7.971 1.073,-8.74 -0.459,-0.769 -1.685,-1.226 -3.525,-2.146 -1.84,-0.92 -10.877,-5.367 -12.562,-5.981 -1.685,-0.614 -2.91,-0.919 -4.137,0.921 -1.227,1.84 -4.746,5.979 -5.819,7.206 -1.073,1.227 -2.144,1.381 -3.984,0.462 -1.84,-0.919 -7.76,-2.861 -14.784,-9.124 -5.465,-4.873 -9.154,-10.891 -10.228,-12.73 -1.074,-1.839 -0.114,-2.835 0.808,-3.751 0.825,-0.824 1.838,-2.147 2.759,-3.22 0.921,-1.073 1.224,-1.84 1.836,-3.065 0.612,-1.225 0.307,-2.301 -0.153,-3.22 C 61.012,55.53 57.44,46.438 55.806,42.802"
     id="path20" />
</svg>
